<?xml version="1.0" standalone="no"?>
<!DOCTYPE svg PUBLIC "-//W3C//DTD SVG 20010904//EN"
 "http://www.w3.org/TR/2001/REC-SVG-20010904/DTD/svg10.dtd">
<svg version="1.0" xmlns="http://www.w3.org/2000/svg"
 width="300.000000pt" height="300.000000pt" viewBox="0 0 300.000000 300.000000"
 preserveAspectRatio="xMidYMid meet">
<metadata>
Created by potrace 1.11, written by Peter Selinger 2001-2013
</metadata>
<g transform="translate(0.000000,300.000000) scale(0.100000,-0.100000)"
fill="#000000" stroke="none">
<path d="M2645 2980 c-179 -36 -447 -115 -561 -165 -59 -26 -60 -29 -104 -205
-17 -69 -34 -132 -37 -140 -3 -8 -17 31 -32 88 -15 56 -32 107 -37 112 -6 6
-25 15 -43 20 -30 8 -46 3 -175 -64 -282 -145 -496 -296 -676 -476 -403 -403
-629 -858 -607 -1219 7 -114 26 -183 73 -270 l35 -64 -240 -242 c-210 -210
-241 -245 -241 -272 0 -48 34 -83 80 -83 36 0 48 10 277 240 l240 239 78 -39
c138 -69 294 -87 477 -55 310 54 718 300 1025 618 149 155 274 328 400 552
253 451 440 1032 421 1303 -6 78 -20 106 -64 127 -43 20 -175 18 -289 -5z
m198 -192 c-17 -217 -170 -682 -330 -1003 -209 -419 -421 -682 -744 -923 l-56
-42 -321 67 -320 67 399 399 c223 223 402 410 405 423 10 39 -4 73 -37 89 -51
27 -77 13 -194 -105 -60 -61 -112 -110 -116 -110 -3 0 -7 24 -8 53 -2 28 -4
70 -6 92 -2 22 -6 90 -10 150 -4 61 -8 121 -10 135 -2 14 -6 77 -10 141 l-7
116 93 55 c133 79 181 102 188 90 3 -6 28 -99 55 -209 52 -216 67 -243 127
-243 59 0 68 22 149 343 l74 297 54 20 c173 65 482 143 585 148 l44 3 -4 -53z
m-1522 -580 c2 -37 8 -111 13 -178 3 -41 8 -113 11 -160 3 -47 8 -103 10 -125
2 -22 7 -89 10 -150 l6 -110 -385 -385 -385 -384 -25 54 c-135 297 71 806 505
1250 74 76 218 200 232 200 4 0 7 -6 8 -12z m-98 -1453 c143 -30 264 -55 268
-55 45 0 -74 -62 -218 -113 -196 -71 -421 -71 -531 -1 -22 15 -22 16 80 119
57 57 111 104 122 105 10 0 136 -25 279 -55z"/>
</g>
</svg>
